<?xml version="1.0" standalone="no"?><!DOCTYPE svg PUBLIC "-//W3C//DTD SVG 1.1//EN" "http://www.w3.org/Graphics/SVG/1.1/DTD/svg11.dtd"><svg t="1718955845659" class="icon" viewBox="0 0 1024 1024" version="1.1" xmlns="http://www.w3.org/2000/svg" p-id="19589" xmlns:xlink="http://www.w3.org/1999/xlink" width="200" height="200"><path d="M872.768366 219.940571c20.260571 0 74.313143 6.582857 88.941714 25.014858 2.194286 3.291429 3.218286 7.314286 3.072 11.264v16.091428c0 7.168-2.633143 10.752-7.826286 10.752-12.288-1.462857-34.230857-17.92-78.628571-17.261714-10.971429-0.585143-63.853714 1.462857-61.44 40.009143-0.731429 30.281143 42.569143 41.691429 47.542857 43.008 58.294857 17.554286 77.824 20.48 100.937143 47.323428 27.428571 35.620571 12.653714 77.238857 6.948571 88.722286-25.380571 49.956571-84.48 54.857143-104.228571 55.149714h-5.632l-0.950857-0.073143c-9.362286 0-54.272-0.512-91.721143-19.748571a20.48 20.48 0 0 1-12.507429-19.017143v-17.188571c0-13.531429 9.874286-10.971429 14.116572-9.435429 16.091429 6.509714 26.331429 11.410286 46.08 15.36 58.660571 12.068571 84.406857-3.657143 90.697143-7.168a36.790857 36.790857 0 0 0 8.484571-55.881143c-16.822857-14.116571-24.795429-14.628571-85.065143-33.645714-7.387429-2.048-69.851429-21.723429-69.997714-83.748571-1.024-45.202286 40.082286-89.965714 111.177143-89.526858z m-612.205715 27.648c20.406857 22.893714 30.646857 53.101714 28.233143 83.748572v110.884571c-1.170286 36.205714 16.896 52.297143 17.408 62.464a13.092571 13.092571 0 0 1-6.582857 10.020572l-20.48 14.336a17.042286 17.042286 0 0 1-8.996571 3.072h-1.024c-3.364571-0.146286-14.921143-3.364571-31.744-40.96a125.805714 125.805714 0 0 1-100.205715 47.104c-26.038857 1.462857-96.621714-14.774857-93.037714-89.965715-2.486857-61.220571 54.564571-99.254857 113.517714-96.036571 11.337143 0 34.596571 0.585143 75.190858 10.020571v-25.014857c4.315429-42.349714-23.552-75.190857-71.68-70.217143-3.876571 0-31.085714-0.804571-73.362286 16.091429-11.776 5.485714-13.312 4.608-17.188572 4.608-11.849143 0-7.021714-34.377143-4.681142-38.765714 8.338286-10.24 57.344-29.330286 105.472-29.037715 32.182857-2.925714 64.219429 7.021714 89.088 27.648z m72.265143-18.870857h29.842286c14.043429-1.389714 18.651429 9.654857 20.114286 16.603429l57.124571 225.28 53.101714-225.28c0.804571-5.12 4.681143-17.700571 20.48-16.384h27.428572c3.437714-0.292571 17.773714-0.731429 20.260571 16.603428l53.467429 228.205715 59.026286-228.205715c0.731429-3.510857 4.388571-18.212571 20.260571-16.603428h31.597714c1.316571-0.219429 9.801143-1.316571 8.411429 13.750857l-0.073143 0.365714c-0.512 2.048-4.681143 15.36-84.333714 271.433143-1.828571 8.777143-7.753143 17.773714-20.333715 16.603429h-29.915428c-17.481143 1.828571-19.968-15.433143-20.260572-17.188572l-53.028571-219.428571-52.443429 219.209143c-0.292571 1.755429-2.779429 19.017143-20.333714 17.188571h-29.257143c-12.580571 1.170286-18.432-7.753143-20.260571-16.530286L323.977509 250.88a61.147429 61.147429 0 0 1-3.072-13.750857 7.314286 7.314286 0 0 1 3.437714-7.314286l2.779428-1.097143h5.705143z m-230.253714 216.502857a44.470857 44.470857 0 0 0 47.908571 48.786286c51.931429-0.731429 73.874286-31.963429 78.848-48.713143 3.949714-16.091429 3.291429-26.331429 3.291429-43.885714a275.017143 275.017143 0 0 0-63.268571-7.753143c-24.283429-1.828571-68.534857 8.996571-66.779429 51.565714z" fill="#222F3E" p-id="19590"></path><path d="M16.119223 626.102857A1019.757714 1019.757714 0 0 0 523.072366 760.685714a1008.347429 1008.347429 0 0 0 386.486857-79.213714c18.870857-8.045714 34.889143 12.434286 16.237714 26.185143-112.054857 82.797714-274.724571 126.829714-413.622857 126.829714a750.592 750.592 0 0 1-507.611429-193.170286c-10.459429-9.435429-1.243429-22.308571 11.483429-15.140571z m1004.178286-8.118857c12.068571 15.140571-3.291429 120.685714-63.268572 171.008-9.216 7.826286-18.066286 3.657143-13.897143-6.582857 13.458286-33.938286 43.739429-109.568 29.403429-128-14.336-18.432-94.866286-8.630857-130.925714-4.315429-10.825143 1.243429-12.653714-8.192-2.852572-15.140571 64.146286-45.056 169.472-32.182857 181.540572-16.969143z" fill="#EC902C" p-id="19591"></path></svg>