<?xml version="1.0" standalone="no"?><!DOCTYPE svg PUBLIC "-//W3C//DTD SVG 1.1//EN" "http://www.w3.org/Graphics/SVG/1.1/DTD/svg11.dtd"><svg t="1727575114235" class="icon" viewBox="0 0 1024 1024" version="1.1" xmlns="http://www.w3.org/2000/svg" p-id="19886" xmlns:xlink="http://www.w3.org/1999/xlink" width="200" height="200"><path d="M512 512m-512 0a512 512 0 1 0 1024 0 512 512 0 1 0-1024 0Z" fill="#f4ea2a" p-id="19887"></path><path d="M724.48 395.776c-3.584-7.68-11.264-12.288-19.456-12.288H562.688l135.168-223.744c4.096-6.656 4.096-14.848 0.512-21.504-4.096-6.656-10.752-10.752-18.432-10.752H473.088c-8.704 0-16.384 5.12-19.968 13.312l-154.624 384c-2.56 6.656-2.048 13.824 2.048 19.968 4.096 5.632 10.752 9.216 17.92 9.216h97.792l-117.76 312.32c-3.584 9.728 0.512 20.992 9.216 26.112 9.216 5.12 20.48 3.072 27.136-5.12L721.92 418.816c5.12-6.656 6.144-15.36 2.56-23.04z" fill="#FFFFFF" p-id="19888"></path></svg>