<?xml version="1.0" standalone="no"?><!DOCTYPE svg PUBLIC "-//W3C//DTD SVG 1.1//EN" "http://www.w3.org/Graphics/SVG/1.1/DTD/svg11.dtd"><svg t="1720668000194" class="icon" viewBox="0 0 1024 1024" version="1.1" xmlns="http://www.w3.org/2000/svg" p-id="10583" xmlns:xlink="http://www.w3.org/1999/xlink" width="200" height="200"><path d="M208.979592 1024h606.040816c115.461224 0 208.979592-93.518367 208.979592-208.979592V208.979592C1024 93.518367 930.481633 0 815.020408 0H208.979592C93.518367 0 0 93.518367 0 208.979592v606.040816c0 115.461224 93.518367 208.979592 208.979592 208.979592z" fill="#1D7DF3" p-id="10584"></path><path d="M219.428571 741.877551h585.142858c34.586122 0 62.693878-28.107755 62.693877-62.693878V344.816327c0-34.586122-28.107755-62.693878-62.693877-62.693878H219.428571c-34.586122 0-62.693878 28.107755-62.693877 62.693878v334.367346c0 34.586122 28.107755 62.693878 62.693877 62.693878z" fill="#F2F2F2" p-id="10585"></path><path d="M512.010449 376.163265l-335.516735 348.682449a62.422204 62.422204 0 0 0 42.945306 17.031837h585.142858c16.613878 0 31.660408-6.478367 42.945306-17.031837L512.010449 376.163265z" fill="#A2A2A2" p-id="10586"></path><path d="M512.031347 397.061224l-323.813878 336.457143c9.195102 5.32898 19.853061 8.359184 31.242449 8.359184h585.142858c11.284898 0 21.942857-3.030204 31.137959-8.359184L512.031347 397.061224z" fill="#F2F2F2" p-id="10587"></path><path d="M804.550531 282.122449h-585.142858c-19.957551 0-37.720816 9.404082-49.214693 23.928163l223.608163 223.503674c65.306122 65.410612 171.049796 65.410612 236.355918 0l223.608163-223.503674c-11.493878-14.628571-29.257143-23.928163-49.214693-23.928163z" fill="#CBCBCB" p-id="10588"></path><path d="M804.550531 282.122449h-585.142858c-14.628571 0-28.107755 5.01551-38.765714 13.479184l220.47347 220.473469c61.23102 61.23102 160.496327 61.23102 221.727347 0l220.473469-220.473469a62.108735 62.108735 0 0 0-38.765714-13.479184z" fill="#F2F2F2" p-id="10589"></path></svg>