<?xml version="1.0" standalone="no"?><!DOCTYPE svg PUBLIC "-//W3C//DTD SVG 1.1//EN" "http://www.w3.org/Graphics/SVG/1.1/DTD/svg11.dtd"><svg t="1734089847341" class="icon" viewBox="0 0 1232 1024" version="1.1" xmlns="http://www.w3.org/2000/svg" p-id="6824" xmlns:xlink="http://www.w3.org/1999/xlink" width="240.625" height="200"><path d="M1017.058 425.22c-3.472-26.034-6.943-50.332-13.885-76.366-26.034-88.515-79.837-164.881-154.468-216.949C756.72 64.217 645.641 27.77 531.092 27.77c-26.034 0-52.068 1.736-76.367 5.207-48.596 5.207-95.457 17.356-140.583 36.448-76.366 31.24-142.318 79.837-192.65 144.054C15.62 345.383 8.678 531.092 104.136 669.939c22.562 32.976 48.596 62.481 78.101 86.78 3.471 3.47 5.207 6.942 5.207 10.413-1.736 13.885-5.207 27.77-8.678 41.654-5.207 17.356-8.678 36.448-8.678 55.54 0 12.149 3.471 24.298 10.414 36.447 19.091 34.712 64.217 45.125 97.193 26.034 32.976-19.092 65.952-39.919 98.929-59.01 5.207-3.472 12.149-3.472 17.356-1.736 38.183 8.678 78.101 15.62 118.02 15.62 41.654 1.736 85.044-1.735 126.698-10.413 20.827-5.207 41.655-10.414 64.217-15.62l-43.39-62.482h-3.47c-29.506 5.207-59.01 13.885-90.252 15.62-62.481 5.207-126.698-1.735-187.444-20.827-5.206-1.735-10.413-1.735-15.62 1.736-29.505 17.356-59.01 34.712-88.515 53.803-12.15 6.943-22.563 13.885-36.448 20.827 1.736-6.942 1.736-12.149 1.736-15.62 6.942-36.447 13.885-71.16 22.563-107.607 1.735-5.206 0-10.413-5.207-12.149-27.77-19.091-53.804-43.39-76.366-69.424-60.746-69.423-88.516-161.41-72.895-253.396 10.413-64.217 39.918-124.963 86.78-171.824 39.918-41.654 86.78-74.63 140.582-97.193 46.862-17.356 97.194-29.505 145.79-32.976 32.977-1.736 67.688-1.736 100.665 1.735 34.712 1.736 69.423 10.414 102.4 22.563 71.16 24.298 135.376 65.952 183.973 123.227 34.711 38.183 57.274 85.044 69.423 135.376 5.207 20.827 6.943 43.39 10.414 64.217l71.16 10.414c0-12.15 0-24.299-1.736-36.448z" fill="#007AFF" p-id="6825"></path><path d="M784.488 834.82c-36.447 0-65.952-29.505-65.952-65.952 0-29.505 20.827-55.54 48.596-64.217 13.885-3.471 29.505-5.207 45.126-10.414 27.77-12.149 53.803-27.77 78.101-48.596 1.736-1.736 5.207-3.472 8.678-5.207 5.207-1.736 10.414-1.736 15.62-3.471 0 5.206 0 10.413-1.735 15.62-3.471 6.942-8.678 13.885-13.885 20.827-19.091 24.298-34.712 52.068-43.39 83.309-3.47 8.678-3.47 19.091-5.206 29.505-10.414 27.77-36.448 48.596-65.953 48.596z" fill="#FCD514" p-id="6826"></path><path d="M973.668 1024c-34.712 0-65.953-27.77-65.953-62.481-3.47-27.77-15.62-53.804-31.24-76.366-8.678-12.15-19.092-24.299-27.77-38.184-3.471-5.206-5.207-12.149-3.471-17.355 5.207-6.943 13.885-1.736 19.091 3.47 19.092 12.15 38.183 26.035 59.01 38.184 19.092 12.149 39.92 19.091 62.482 22.563 31.24 3.47 55.539 31.24 55.539 62.48s-19.092 59.011-50.332 65.953c-6.943 1.736-12.15 1.736-17.356 1.736z" fill="#FF6702" p-id="6827"></path><path d="M1232.271 765.397c-1.735 36.447-29.505 64.217-64.217 67.688-24.298 3.47-46.86 12.149-67.688 27.77-17.356 10.413-32.976 22.562-48.597 34.711-1.735 1.736-3.47 3.471-5.206 3.471-3.471 1.736-6.943 0-10.414 0-1.735-3.47-3.471-6.942-1.735-10.413 3.47-8.678 8.678-15.62 13.884-22.563 20.827-26.034 36.448-55.539 46.861-88.515 3.472-10.414 3.472-22.563 6.943-32.977 10.413-31.24 39.918-50.332 72.895-45.125 29.505 5.207 52.067 27.77 55.539 57.275 0 3.47 1.735 6.942 1.735 8.678z" fill="#0087FA" p-id="6828"></path><path d="M905.98 576.217c0-34.712 26.034-62.481 60.745-65.953 34.712-3.47 65.953 19.092 71.16 53.804 6.942 41.654 26.034 81.573 55.539 112.813 5.207 6.943 8.678 12.15 12.149 19.092 1.735 3.471 1.735 6.942-1.736 10.413-1.735 1.736-5.206 1.736-6.942 0-5.207-1.735-12.15-5.206-15.62-8.678-24.299-20.827-52.068-36.447-81.573-48.596-12.15-3.471-26.034-6.943-39.919-10.414-32.976-3.47-53.803-31.24-53.803-62.481z" fill="#2AC402" p-id="6829"></path></svg>