<?xml version="1.0" standalone="no"?><!DOCTYPE svg PUBLIC "-//W3C//DTD SVG 1.1//EN" "http://www.w3.org/Graphics/SVG/1.1/DTD/svg11.dtd"><svg t="1718955810194" class="icon" viewBox="0 0 1024 1024" version="1.1" xmlns="http://www.w3.org/2000/svg" p-id="17409" xmlns:xlink="http://www.w3.org/1999/xlink" width="200" height="200"><path d="M376.354133 501.76h273.885867v66.218667H376.354133v-66.218667z" fill="#FF6A00" p-id="17410"></path><path d="M785.954133 264.533333H605.934933l44.373334 66.218667 130.389333 44.100267c23.483733 8.260267 39.185067 33.109333 39.185067 57.9584v209.578666c0 24.849067-15.701333 49.698133-39.185067 57.9584l-130.389333 44.100267-44.373334 66.218667h180.0192c75.639467 0 135.645867-63.488 135.645867-143.428267V410.692267c0-79.940267-60.0064-146.158933-135.645867-146.158934z m-542.72 435.8144c-23.415467-8.260267-39.1168-33.109333-39.1168-57.9584V432.810667c0-24.849067 15.701333-49.698133 39.185067-57.9584l130.389333-44.100267 44.373334-66.218667H238.045867C162.474667 264.533333 102.4 330.752 102.4 410.692267v253.815466c0 79.940267 60.0064 143.36 135.645867 143.36h180.0192l-44.373334-66.218666-130.389333-41.301334z" fill="#FF6A00" p-id="17411"></path></svg>