<?xml version="1.0" standalone="no"?><!DOCTYPE svg PUBLIC "-//W3C//DTD SVG 1.1//EN" "http://www.w3.org/Graphics/SVG/1.1/DTD/svg11.dtd"><svg t="1723771715018" class="icon" viewBox="0 0 1314 1024" version="1.1" xmlns="http://www.w3.org/2000/svg" p-id="4271" xmlns:xlink="http://www.w3.org/1999/xlink" width="256.640625" height="200"><path d="M447.705441 287.277795H69.932103v0.607353h679.627596c74.704374 0 142.120516-34.011747 187.064611-87.458779-93.532305-122.077879-241.118995-200.426369-406.318911-200.426369-93.532305 0-181.598437 25.508811-257.517516 69.2382 75.311726 56.483795 135.439637 131.795521 174.917558 218.039595z" fill="#EFBF1B" p-id="4272"></path><path d="M937.839015 821.748112c-44.944095-52.839679-111.145532-86.244074-185.849906-86.244074H69.324751v0.607352h386.883626c-36.441158 89.280837-95.354363 166.414621-168.844031 226.542532-88.673484-47.373505-161.5558-120.863174-209.536658-210.144011 86.244074 161.5558 256.302811 271.486627 452.477711 271.486627 166.414621 0.607353 314.001311-78.955842 407.533616-202.248426z" fill="#40BEB0" p-id="4273"></path><path d="M467.140725 655.940843h224.113121c79.563195 0 143.942574-64.379379 144.549927-143.942574 0-78.955842-64.379379-143.942574-143.942574-143.942574H465.92602c10.932347 43.122037 17.613226 91.102895 17.613226 143.942574s-6.073526 100.820537-16.398521 143.942574z" fill="#0AA5DE" p-id="4274"></path><path d="M483.539246 511.998269c0-53.447032-6.680879-100.820537-17.613226-143.942574H38.349766a512.180475 512.180475 0 0 0 0 287.885148h428.790959c10.324995-43.122037 16.398521-91.102895 16.398521-143.942574z" fill="#231F20" p-id="4275"></path><path d="M272.787883 69.2382c-87.458779 51.017621-158.519037 126.9367-203.463132 218.039595H447.705441c-39.477921-86.244074-99.605832-161.5558-174.917558-218.039595z" fill="#D7A229" p-id="4276"></path><path d="M287.971698 962.653922c73.489669-59.520558 132.402874-137.261695 168.844032-226.542532H69.932103c2.429411 5.466174 5.466174 10.932347 8.502937 16.398521 47.373505 89.280837 120.255821 162.770505 209.536658 210.144011z" fill="#009B8F" p-id="4277"></path></svg>