<?xml version="1.0" standalone="no"?><!DOCTYPE svg PUBLIC "-//W3C//DTD SVG 1.1//EN" "http://www.w3.org/Graphics/SVG/1.1/DTD/svg11.dtd"><svg t="1722581018944" class="icon" viewBox="0 0 1024 1024" version="1.1" xmlns="http://www.w3.org/2000/svg" p-id="4251" xmlns:xlink="http://www.w3.org/1999/xlink" width="200" height="200"><path d="M501.418667 30.72c-8.874667 0.682667-17.408 2.730667-25.258667 6.826667L135.168 199.338667c-17.749333 8.533333-30.72 24.576-35.157333 43.690666L17.066667 608.256c-4.096 17.066667-0.682667 35.157333 9.216 49.834667 1.024 1.706667 2.389333 3.413333 3.754666 5.12l235.52 292.522666c12.288 15.36 31.061333 24.234667 50.858667 23.893334h377.514667c19.797333 0 38.570667-9.216 50.858666-24.234667l235.178667-292.864c12.288-15.36 16.725333-35.498667 12.288-54.613333L907.946667 243.029333c-4.437333-19.114667-17.408-35.157333-35.157334-43.690666L532.48 37.205333c-9.557333-4.778667-20.48-7.168-31.061333-6.485333z" fill="#326CE5" p-id="4252"></path><path d="M504.490667 154.965333c-11.605333 0.682667-20.48 10.922667-20.138667 22.528v5.802667c0.682667 6.485333 1.365333 12.970667 2.730667 19.456 2.048 12.288 2.389333 24.576 2.048 36.864-1.024 4.096-3.413333 7.850667-6.826667 10.581333l-0.341333 8.533334c-12.288 1.024-24.576 3.072-36.864 5.802666-50.858667 11.605333-97.28 37.888-133.12 76.117334l-7.168-5.12c-4.096 1.365333-8.533333 0.682667-12.288-1.365334-9.898667-7.509333-19.114667-15.701333-27.306667-24.917333-4.096-5.12-8.533333-9.898667-13.312-14.336l-4.437333-3.754667c-4.096-3.072-8.874667-5.12-13.994667-5.461333-6.144-0.341333-12.288 2.389333-16.384 7.168-6.826667 9.557333-4.778667 23.210667 5.12 30.037333l4.096 3.072c5.461333 3.754667 10.922667 6.826667 16.725333 9.898667 10.922667 6.144 21.162667 13.312 30.378667 21.504 2.389333 3.413333 3.754667 7.509333 4.096 11.605333l6.826667 6.144c-35.84 53.930667-50.517333 119.466667-41.301334 183.637334l-8.533333 2.389333c-2.048 3.413333-5.12 6.485333-8.874667 8.874667-11.946667 3.072-24.234667 5.12-36.522666 6.144-6.485333 0-12.970667 0.682667-19.456 1.365333l-5.461334 1.365333h-0.682666c-11.264 1.706667-19.114667 11.946667-17.408 23.210667 0.682667 4.437333 2.730667 8.533333 5.802666 11.605333 5.461333 5.461333 13.653333 7.509333 20.821334 5.12h0.341333l5.461333-0.682666c6.144-1.706667 12.288-4.096 18.432-6.826667 11.605333-4.437333 23.210667-8.192 35.498667-10.24 4.096 0.341333 8.192 1.706667 11.605333 4.096l9.216-1.365333c19.797333 61.781333 61.781333 114.005333 117.418667 146.773333l-3.754667 7.509333c1.706667 3.413333 2.389333 7.509333 1.706667 11.605334-5.12 11.605333-11.264 22.869333-18.432 33.450666-4.096 5.12-7.509333 10.581333-10.922667 16.384l-2.730666 5.461334c-5.802667 9.898667-2.389333 22.186667 7.509333 27.989333 3.754667 2.048 8.192 3.072 12.288 2.730667 7.509333-1.024 14.336-5.802667 17.066667-13.312l2.389333-5.12c2.389333-6.144 4.437333-12.288 5.802667-18.432 5.461333-13.312 8.192-27.648 15.701333-36.522667 2.389333-2.389333 5.461333-3.754667 8.874667-4.437333l4.437333-8.192c60.416 23.210667 127.317333 23.552 187.733333 0.341333l4.096 7.509333c4.096 0.682667 7.850667 2.730667 10.24 6.144 5.802667 10.922667 10.24 22.528 13.994667 34.133334 1.706667 6.485333 3.754667 12.629333 5.802667 18.773333l2.389333 5.12c4.096 10.581333 15.701333 16.042667 26.282667 11.946667 4.096-1.365333 7.509333-4.437333 9.898666-7.850667 4.096-6.485333 4.437333-14.677333 0.341334-21.504l-2.730667-5.461333c-3.413333-5.461333-6.826667-10.922667-10.922667-16.384-7.168-10.24-13.312-21.162667-18.432-32.426667-1.024-4.096-0.341333-8.533333 2.048-12.288-1.365333-2.730667-2.389333-5.461333-3.413333-8.192 55.637333-33.109333 97.28-85.674667 116.736-147.456l8.533333 1.365333c3.072-2.730667 7.168-4.437333 11.264-4.096 11.946667 2.389333 23.893333 5.802667 35.498667 10.24 6.144 3.072 12.288 5.12 18.432 7.168 1.365333 0.341333 3.754667 0.682667 5.12 1.024h0.341333c10.922667 3.413333 22.186667-2.389333 25.941334-13.312 1.365333-4.096 1.365333-8.533333 0-12.970666-2.389333-7.168-8.874667-12.629333-16.725334-13.653334l-5.802666-1.365333c-6.485333-1.024-12.970667-1.365333-19.456-1.365333-12.288-0.682667-24.576-2.730667-36.522667-6.144-3.754667-2.048-6.826667-5.12-8.874667-8.874667l-8.192-2.389333c8.874667-64.170667-6.144-129.365333-42.325333-183.296l7.168-6.826667c-0.341333-4.096 1.024-8.192 3.754667-11.605333 9.216-8.192 19.456-15.018667 30.378666-21.162667 5.802667-3.072 11.605333-6.144 16.725334-9.898667l4.437333-3.754666c9.557333-5.802667 12.629333-18.432 6.485333-28.330667-2.389333-4.096-6.144-7.168-10.581333-8.533333-7.509333-2.730667-15.701333-0.682667-21.162667 4.778666l-4.437333 3.754667c-4.778667 4.437333-9.216 9.216-13.312 14.336-8.192 9.216-17.066667 17.749333-26.624 25.258667-3.754667 1.706667-8.192 2.048-12.288 1.365333l-7.850667 5.461333a267.308373 267.308373 0 0 0-169.301333-81.578666c0-3.072-0.341333-7.509333-0.341333-9.216-3.413333-2.389333-5.802667-6.144-6.826667-10.24-0.341333-12.288 0.341333-24.576 2.389333-36.864 1.365333-6.144 2.389333-12.970667 2.730667-19.456V177.493333c2.048-11.946667-6.826667-21.845333-18.773333-22.528z m-25.6 157.696l-6.144 106.837334h-0.341334c-0.341333 6.485333-4.096 12.288-10.24 15.36-5.802667 3.072-12.970667 2.389333-18.432-1.706667l-87.722666-62.122667c27.989333-27.306667 62.805333-46.421333 101.034666-54.954666 7.509333-1.365333 14.677333-2.389333 21.845334-3.413334z m51.2 0c45.738667 5.802667 88.746667 26.282667 122.197333 58.709334l-86.698667 61.781333a17.954133 17.954133 0 0 1-25.258666-3.072c-2.389333-3.072-3.754667-6.826667-3.754667-10.922667l-6.485333-106.496z m-205.482667 98.645334l80.213333 71.338666v0.341334c7.509333 6.485333 8.192 18.090667 1.365334 25.6-2.389333 2.730667-5.12 4.437333-8.533334 5.461333v0.341333l-102.741333 29.696c-5.12-46.421333 5.12-92.842667 29.696-132.778666z m359.082667 0c24.234667 39.594667 35.157333 86.016 30.72 132.096l-103.082667-29.696v-0.341334c-6.485333-1.706667-11.264-6.826667-12.629333-13.312-1.365333-6.485333 0.682667-13.312 5.802666-17.408l79.189334-71.338666zM488.106667 488.448h32.768l19.797333 25.6-7.168 31.744-29.354667 13.994667-29.354666-13.994667-6.826667-31.744 20.138667-25.6z m104.789333 86.698667h4.096l105.813333 17.749333c-15.36 44.032-45.397333 81.578667-84.992 106.837333l-40.96-99.328c-3.754667-9.216 0.341333-19.797333 9.557334-23.552 2.048-0.682667 3.754667-1.365333 6.144-1.365333l0.341333-0.341333z m-177.834667 0.682666c6.144 0 11.605333 3.072 14.677334 8.192 3.413333 5.12 3.754667 11.264 1.365333 16.725334v0.341333l-40.618667 98.304a209.988267 209.988267 0 0 1-84.309333-105.813333l105.130667-17.749334h3.754666z m88.746667 42.666667c6.826667-0.341333 13.312 3.413333 16.384 9.557333h0.341333l51.882667 93.525334-20.821333 6.144c-38.229333 8.874667-77.824 6.826667-115.029334-5.802667l51.882667-93.525333c3.072-5.461333 8.874667-8.874667 15.36-8.874667v-1.024z" fill="#FFFFFF" p-id="4253"></path></svg>