<?xml version="1.0" standalone="no"?><!DOCTYPE svg PUBLIC "-//W3C//DTD SVG 1.1//EN" "http://www.w3.org/Graphics/SVG/1.1/DTD/svg11.dtd"><svg t="1718955732497" class="icon" viewBox="0 0 1024 1024" version="1.1" xmlns="http://www.w3.org/2000/svg" p-id="16368" xmlns:xlink="http://www.w3.org/1999/xlink" width="200" height="200"><path d="M745.015484 542.858353l-56.169852-32.643547 22.075836-2.582155 56.169852 32.643546-22.075836 2.582156z" fill="#CB0000" p-id="16369"></path><path d="M573.54123 820.153166l-56.169852-32.643546a282.650395 282.650395 0 0 0 57.492808-44.087915l56.169853 32.643546a282.650395 282.650395 0 0 1-57.492809 44.087915" fill="#CC0000" p-id="16370"></path><path d="M631.034039 776.065251l-56.169853-32.643546q8.447793-8.352157 16.417409-17.533155l56.169852 32.643546q-7.969616 9.180997-16.417408 17.533155" fill="#C70000" p-id="16371"></path><path d="M647.451447 758.532096l-56.169852-32.643546q6.248179-7.172654 12.193512-14.855364l56.169853 32.643546q-5.961273 7.698649-12.193513 14.855364" fill="#C20000" p-id="16372"></path><path d="M659.64496 743.676732l-56.169853-32.643546q5.275886-6.806052 10.37644-14.058402l56.169852 32.643546c-3.395056 4.78177-6.85387 9.563539-10.376439 14.058402" fill="#BD0000" p-id="16373"></path><path d="M670.021399 729.61833L613.835608 696.974784q4.78177-6.726356 9.228815-13.787436l0.143453-0.223149L679.393668 715.671502l-0.143453 0.22315q-4.526742 7.077019-9.228816 13.787435" fill="#B80000" p-id="16374"></path><path d="M679.393668 715.671502l-56.169853-32.643546q3.921051-6.152543 7.68271-12.576054L687.156073 703.031692q-3.745719 6.375693-7.682709 12.576053" fill="#B30000" p-id="16375"></path><path d="M687.156073 703.031692l-56.169852-32.643547q3.809476-6.503207 7.411743-13.309258l56.169852 32.643546q-3.618206 6.790113-7.411743 13.309259" fill="#AD0000" p-id="16376"></path><path d="M694.48812 689.722433l-56.169852-32.643546q3.777598-7.108897 7.347985-14.52064l56.169853 32.643546q-3.554449 7.411743-7.347986 14.52064" fill="#A80000" p-id="16377"></path><path d="M701.836106 675.201793L645.714071 642.558247q3.841355-7.969616 7.443621-16.273956l56.169853 32.627607q-3.602266 8.320279-7.443621 16.289895" fill="#A30000" p-id="16378"></path><path d="M709.279727 658.911898l-56.169852-32.627607q3.984808-9.212876 7.698649-18.87205l56.169852 32.643546q-3.697902 9.659174-7.698649 18.856111" fill="#9E0000" p-id="16379"></path><path d="M716.978376 640.055787l-56.169852-32.643546q4.303593-11.157462 8.208704-22.872798l56.169852 32.643547q-3.921051 11.747214-8.208704 22.872797" fill="#990000" p-id="16380"></path><path d="M725.18708 617.18299l-56.169852-32.643547q4.78177-14.249673 8.957848-29.376004l56.169852 32.643547q-4.207957 15.110392-8.957848 29.376004" fill="#940000" p-id="16381"></path><path d="M734.144928 587.806986l-56.169852-32.643547q5.546853-20.019675 10.153291-41.537637l56.169852 32.643546q-4.590499 21.517963-10.153291 41.537638" fill="#8F0000" p-id="16382"></path><path d="M744.298219 546.269348l-56.169852-32.643546 0.717265-3.410996 56.169852 32.643547-0.717265 3.410995" fill="#8A0000" p-id="16383"></path><path d="M454.45923 888.899072l-56.169852-32.627607 119.082-68.761845 56.169852 32.643546-119.082 68.745906z" fill="#DB0000" p-id="16384"></path><path d="M423.393668 894.190897l-56.169853-32.611668 0.143453 0.079696 56.169853 32.643547-0.143453-0.079696" fill="#9E0000" p-id="16385"></path><path d="M423.537121 894.302472l-56.169853-32.643547a14.345309 14.345309 0 0 0 1.402653 0.685387l56.169852 32.643547a14.345309 14.345309 0 0 1-1.402652-0.685387" fill="#A30000" p-id="16386"></path><path d="M424.939773 894.987859L368.769921 862.312434l0.82884 0.318784 0.82884 0.255028 56.169852 32.643547-0.82884-0.255028-0.82884-0.318785" fill="#A80000" p-id="16387"></path><path d="M426.597453 895.561671l-56.169852-32.643546a16.959343 16.959343 0 0 0 2.024282 0.462237l56.169853 32.643547a16.959343 16.959343 0 0 1-2.024283-0.462238" fill="#AD0000" p-id="16388"></path><path d="M428.621736 896.023909l-56.169853-32.643547a19.573377 19.573377 0 0 0 2.215553 0.270967l56.169853 32.643547a19.573377 19.573377 0 0 1-2.215553-0.270967" fill="#B30000" p-id="16389"></path><path d="M430.837289 896.294876L374.747133 863.651329h2.48652l56.169852 32.643547h-2.48652" fill="#B80000" p-id="16390"></path><path d="M433.323809 896.310815l-56.169852-32.643546a28.339954 28.339954 0 0 0 2.964697-0.302846l56.169852 32.643547a28.339954 28.339954 0 0 1-2.964697 0.302845" fill="#BD0000" p-id="16391"></path><path d="M436.288506 896.00797l-56.169852-32.643547a32.292883 32.292883 0 0 0 3.793537-0.796961L440.097982 895.211008a32.292883 32.292883 0 0 1-3.793537 0.796962" fill="#C20000" p-id="16392"></path><path d="M440.097982 895.211008l-56.169852-32.643546a49.204408 49.204408 0 0 0 5.738123-1.976465l56.153914 32.643546a51.005541 51.005541 0 0 1-5.722185 1.976465" fill="#C70000" p-id="16393"></path><path d="M445.804227 893.234543l-56.153913-32.643546a76.508312 76.508312 0 0 0 8.639064-4.319532L454.443291 888.899072a73.049499 73.049499 0 0 1-8.655003 4.335471" fill="#CC0000" p-id="16394"></path><path d="M303.482828 976.07073l-56.169853-32.643546A105.071415 105.071415 0 0 0 268.719363 927.663284l56.169853 32.643546a105.071415 105.071415 0 0 1-21.406388 15.811718" fill="#CC0000" p-id="16395"></path><path d="M324.889216 960.259013L268.719363 927.663284c1.259199-1.24326 2.454642-2.502459 3.554449-3.777598L328.523361 956.481415c-1.099807 1.275139-2.295249 2.534338-3.554449 3.777598" fill="#C70000" p-id="16396"></path><path d="M328.523361 956.481415L272.273812 923.837868c0.765083-0.876658 1.498288-1.769255 2.183675-2.645912l56.169852 32.627607c-0.685387 0.892597-1.418592 1.785194-2.183674 2.661852" fill="#C20000" p-id="16397"></path><path d="M330.627339 953.819563l-56.169852-32.627607c0.541934-0.717265 1.067929-1.418592 1.593923-2.135857l56.169852 32.643546c-0.510055 0.701326-1.03605 1.418592-1.593923 2.119918" fill="#BD0000" p-id="16398"></path><path d="M332.205323 951.699645L276.035471 919.056099c0.446298-0.637569 0.860719-1.259199 1.259199-1.896769l56.169853 32.643547c-0.398481 0.637569-0.812901 1.259199-1.2592 1.896768" fill="#B80000" p-id="16399"></path><path d="M333.464523 949.802877l-56.169853-32.643547c0.382542-0.573812 0.733205-1.163564 1.067929-1.737376l56.169852 32.643546c-0.334724 0.573812-0.685387 1.163564-1.067928 1.737377" fill="#B30000" p-id="16400"></path><path d="M334.532451 948.0655l-56.169852-32.643546v-0.127514c0.366602-0.653508 0.733205-1.291078 1.083867-1.960526l56.249549 32.643547c-0.350663 0.669448-0.717265 1.307017-1.083868 1.960525v0.127514" fill="#AD0000" p-id="16401"></path><path d="M335.696015 945.977461L279.526163 913.317975c0.382542-0.701326 0.733205-1.418592 1.083867-2.151796l56.169853 32.643546c-0.350663 0.733205-0.701326 1.45047-1.083868 2.151797" fill="#A80000" p-id="16402"></path><path d="M336.779883 943.825665l-56.169853-32.643547c0.366602-0.733205 0.701326-1.498288 1.03605-2.247431l56.169853 32.643546c-0.334724 0.749144-0.669448 1.498288-1.03605 2.247432" fill="#A30000" p-id="16403"></path><path d="M337.815933 941.578233l-56.169853-32.643546q0.525995-1.211382 1.004172-2.438703l56.169852 32.627607c-0.318785 0.82884-0.653508 1.593923-1.004171 2.454642" fill="#9E0000" p-id="16404"></path><path d="M338.820104 939.123591l-56.169852-32.627607c0.334724-0.908536 0.669448-1.801133 0.972293-2.725609l56.169853 32.643547c-0.302845 0.924475-0.637569 1.817072-0.972294 2.709669" fill="#990000" p-id="16405"></path><path d="M339.792398 936.413922L283.622545 903.754436c0.350663-1.03605 0.669448-2.103979 0.972293-3.187846l56.169853 32.643546c-0.302845 1.083868-0.62163 2.135857-0.972293 3.187847" fill="#940000" p-id="16406"></path><path d="M340.764691 933.226076L284.594838 900.56659c0.366602-1.322956 0.701326-2.661852 0.988233-4.032626L341.752923 929.257207c-0.286906 1.370774-0.62163 2.709669-0.988232 4.032626" fill="#8F0000" p-id="16407"></path><path d="M341.752923 929.257207l-56.169852-32.707304c0.41442-1.928647 0.749144-3.889173 1.004171-5.897515l56.169853 32.643546c-0.255028 2.008343-0.589752 3.968869-1.004172 5.897516" fill="#8A0000" p-id="16408"></path><path d="M342.757095 923.295934l-56.169853-32.643546a82.278314 82.278314 0 0 0 0.669448-11.014009l56.169852 32.643546a82.278314 82.278314 0 0 1-0.669447 11.014009" fill="#850000" p-id="16409"></path><path d="M272.385387 1023.968122L216.215534 991.324575l-0.079696-29.901999 56.169853 32.643547 0.079696 29.901999z" fill="#880000" p-id="16410"></path><path d="M272.305691 994.066123L216.135838 961.422576l31.177137-17.995392 56.169853 32.643546-31.177137 17.995393z" fill="#DB0000" p-id="16411"></path><path d="M343.426542 912.281925l-56.169852-32.643546-2.056161-726.828965 56.169852 32.643547 2.056161 726.828964z" fill="#880000" p-id="16412"></path><path d="M341.370381 185.452961L285.200529 152.809414q0-19.525559-8.846274-24.610174l56.169853 32.643547q8.782517 5.100554 8.846273 24.610174" fill="#850000" p-id="16413"></path><path d="M483.643963 32.643546l0.079697 29.870121-31.161198 17.995392a85.737127 85.737127 0 0 0-28.913767 26.889484 64.649524 64.649524 0 0 0-11.045887 36.915261l2.056161 726.828964q0 20.33846 11.157462 24.147936t28.690617-6.375692l119.082-68.745907q61.684827-35.640122 105.59741-104.33821t65.829026-172.972542l22.075836-2.518399-39.242388 220.662723-455.463545 262.997323-0.079696-29.901999 31.177137-17.995392q22.314924-12.831082 31.129319-28.132744t8.814395-35.656061l-2.056161-726.828965q0-20.33846-9.563539-25.008654t-33.265176 9.005665l-28.531225 16.417409V156.029139z" fill="#FFCC00" p-id="16414"></path><path d="M270.010441 185.899259L213.840589 153.271652 213.760893 123.385592l56.169852 32.643547 0.079696 29.87012z" fill="#880000" p-id="16415"></path><path d="M269.930745 156.029139L213.760893 123.385592 427.474111 0l56.169852 32.643546L269.930745 156.029139z" fill="#DB0000" p-id="16416"></path></svg>