<?xml version="1.0" standalone="no"?><!DOCTYPE svg PUBLIC "-//W3C//DTD SVG 1.1//EN" "http://www.w3.org/Graphics/SVG/1.1/DTD/svg11.dtd"><svg t="1732698564252" class="icon" viewBox="0 0 1024 1024" version="1.1" xmlns="http://www.w3.org/2000/svg" p-id="4395" xmlns:xlink="http://www.w3.org/1999/xlink" width="200" height="200"><path d="M819.9 472.9L675 723.9l1.7 99.4 86.9-48.3 144.9-251-88.6-51.1z m51.2-88.6L837 443.4l88.6 51.1 34.1-59.1-88.6-51.1zM544.3 703h-288c-17.7 0-32 14.3-32 32s14.3 32 32 32h288c17.7 0 32-14.3 32-32s-14.3-32-32-32z m-288-192c-17.7 0-32 14.3-32 32s14.3 32 32 32h384c17.7 0 32-14.3 32-32s-14.3-32-32-32h-384z m0-192c-17.7 0-32 14.3-32 32s14.3 32 32 32h384c17.7 0 32-14.3 32-32s-14.3-32-32-32h-384zM288 64h64v160h-64z m96 64h128v64H384z m160-64h64v160h-64z" p-id="4396" fill="#1296db"></path><path d="M768 864c0 17.7-14.3 32-32 32H160c-17.7 0-32-14.3-32-32V224c0-17.7 14.3-32 32-32h96v-64h-96c-53 0-96 43-96 96v640c0 53 43 96 96 96h576c53 0 96-43 96-96V686.7L768 798v66z m64-640c0-53-43-96-96-96h-96v64h96c17.7 0 32 14.3 32 32v311l64-111.3V224z" p-id="4397" fill="#1296db"></path></svg>