<?xml version="1.0" standalone="no"?><!DOCTYPE svg PUBLIC "-//W3C//DTD SVG 1.1//EN" "http://www.w3.org/Graphics/SVG/1.1/DTD/svg11.dtd"><svg t="1732698570415" class="icon" viewBox="0 0 1024 1024" version="1.1" xmlns="http://www.w3.org/2000/svg" p-id="4669" xmlns:xlink="http://www.w3.org/1999/xlink" width="200" height="200"><path d="M810.666667 616.533333c0-46.933333 38.4-83.2 85.333333-83.2s85.333333 38.4 85.333333 85.333334-38.4 85.333333-85.333333 85.333333c-32 0-59.733333-17.066667-74.666667-44.8h-113.066666c-10.666667 0-19.2-6.4-21.333334-14.933333L590.933333 277.333333l-140.8 539.733334c-6.4 21.333333-34.133333 21.333333-40.533333 2.133333l-102.4-320-74.666667 151.466667c-4.266667 6.4-10.666667 12.8-19.2 12.8H128c-12.8 0-21.333333-8.533333-21.333333-21.333334s8.533333-21.333333 21.333333-21.333333h70.4l91.733333-185.6c8.533333-17.066667 34.133333-14.933333 38.4 2.133333L426.666667 733.866667l142.933333-548.266667c6.4-21.333333 36.266667-21.333333 40.533333 0l113.066667 430.933333H810.666667z m85.333333 44.8c23.466667 0 42.666667-19.2 42.666667-42.666666s-19.2-42.666667-42.666667-42.666667-42.666667 19.2-42.666667 42.666667 19.2 42.666667 42.666667 42.666666zM85.333333 938.666667h874.666667c12.8 0 21.333333 8.533333 21.333333 21.333333s-8.533333 21.333333-21.333333 21.333333H64c-12.8 0-21.333333-8.533333-21.333333-21.333333V64c0-12.8 8.533333-21.333333 21.333333-21.333333s21.333333 8.533333 21.333333 21.333333v874.666667z" fill="#1296db" p-id="4670"></path></svg>