<?xml version="1.0" standalone="no"?><!DOCTYPE svg PUBLIC "-//W3C//DTD SVG 1.1//EN" "http://www.w3.org/Graphics/SVG/1.1/DTD/svg11.dtd"><svg t="1732698539298" class="icon" viewBox="0 0 1024 1024" version="1.1" xmlns="http://www.w3.org/2000/svg" p-id="3253" xmlns:xlink="http://www.w3.org/1999/xlink" width="200" height="200"><path d="M695.466667 529.066667c14.933333 25.6 42.666667 42.666667 74.666666 42.666666 46.933333 0 85.333333-38.4 85.333334-85.333333s-38.4-85.333333-85.333334-85.333333-85.333333 38.4-85.333333 85.333333c0 6.4 0 12.8 2.133333 19.2L629.333333 533.333333c-14.933333-25.6-44.8-42.666667-76.8-46.933333v40.533333h-23.466666v-40.533333c-32 4.266667-59.733333 21.333333-74.666667 44.8l-61.866667-29.866667-10.666666 21.333334 61.866666 29.866666c-4.266667 12.8-6.4 23.466667-6.4 36.266667 0 12.8 2.133333 23.466667 6.4 36.266667l-44.8 21.333333-17.066666 8.533333 10.666666 21.333334 61.866667-29.866667c6.4 10.666667 14.933333 19.2 25.6 27.733333 14.933333 10.666667 32 17.066667 49.066667 19.2V661.333333h23.466666v34.133334c21.333333-2.133333 42.666667-12.8 59.733334-27.733334 6.4-6.4 12.8-12.8 17.066666-21.333333l51.2 25.6 8.533334 4.266667c-2.133333 6.4-2.133333 10.666667-2.133334 17.066666 0 27.733333 23.466667 51.2 51.2 51.2 27.733333 0 51.2-23.466667 51.2-51.2S763.733333 640 733.866667 640c-14.933333 0-27.733333 6.4-36.266667 14.933333l-61.866667-29.866666c2.133333-2.133333 2.133333-6.4 2.133334-10.666667 2.133333-8.533333 4.266667-14.933333 4.266666-23.466667 0-8.533333-2.133333-17.066667-4.266666-25.6 0-2.133333-2.133333-6.4-2.133334-8.533333l59.733334-27.733333z" fill="#1296db" p-id="3254"></path><path d="M526.933333 320v142.933333h23.466667V320c57.6-6.4 102.4-55.466667 102.4-117.333333 0-64-53.333333-117.333333-117.333333-117.333334s-117.333333 53.333333-117.333334 117.333334c2.133333 61.866667 49.066667 110.933333 108.8 117.333333zM309.333333 492.8l49.066667 25.6 10.666667-21.333333-51.2-27.733334c2.133333-6.4 2.133333-12.8 2.133333-19.2 0-46.933333-38.4-85.333333-85.333333-85.333333s-85.333333 38.4-85.333334 85.333333 38.4 85.333333 85.333334 85.333334c32 0 59.733333-17.066667 74.666666-42.666667zM360.533333 667.733333l-70.4 34.133334c-8.533333-10.666667-23.466667-17.066667-38.4-17.066667-27.733333 0-51.2 23.466667-51.2 51.2s23.466667 51.2 51.2 51.2 51.2-23.466667 51.2-51.2V725.333333l70.4-36.266666-12.8-21.333334zM550.4 804.266667v-76.8h-23.466667v76.8c-32 4.266667-57.6 32-57.6 66.133333 0 36.266667 29.866667 68.266667 68.266667 68.266667 36.266667 0 68.266667-29.866667 68.266667-68.266667-2.133333-32-25.6-59.733333-55.466667-66.133333z" fill="#1296db" p-id="3255"></path></svg>